<?xml version="1.0" standalone="no"?>
<!DOCTYPE svg PUBLIC "-//W3C//DTD SVG 20010904//EN"
 "http://www.w3.org/TR/2001/REC-SVG-20010904/DTD/svg10.dtd">
<svg version="1.0" xmlns="http://www.w3.org/2000/svg"
 width="200.000000pt" height="200.000000pt" viewBox="0 0 200.000000 200.000000"
 preserveAspectRatio="xMidYMid meet">
<metadata>
Created by potrace 1.11, written by Peter Selinger 2001-2013
</metadata>
<g transform="translate(0.000000,200.000000) scale(0.100000,-0.100000)"
fill="#000000" stroke="none">
<path d="M49 1977 c-15 -12 -32 -32 -38 -44 -8 -16 -11 -275 -11 -928 0 -1013
-5 -946 73 -984 43 -21 49 -21 926 -21 796 0 885 2 914 16 39 21 50 32 71 71
14 29 16 118 16 913 0 952 2 924 -53 975 -21 20 -31 20 -947 22 l-925 2 -26
-22z"/>
</g>
</svg>
